<svg width="26" height="21" viewBox="0 0 26 21" fill="none" xmlns="http://www.w3.org/2000/svg" class="record-player">
<circle cx="10.5" cy="10.5" r="9.5" stroke="#FAF9F4" stroke-width="2"/>
<circle cx="10.5" cy="10.5" r="2.5" stroke="#FAF9F4" stroke-width="2"/>
<path d="M22.6515 2.55423C22.6543 2.24874 22.9042 2.00336 23.2097 2.00616V2.00616C23.5152 2.00895 23.7606 2.25887 23.7578 2.56435L23.6512 14.2132C23.6484 14.5187 23.3985 14.7641 23.093 14.7613V14.7613C22.7875 14.7585 22.5421 14.5086 22.5449 14.2031L22.6515 2.55423Z" fill="#FAF9F4"/>
<rect width="1.03343" height="3.94937" rx="0.516716" transform="matrix(0.924546 0.381071 -0.543763 0.839239 22.8163 13.7834)" fill="#FAF9F4"/>
<mask id="path-5-inside-1_111_214" fill="white">
<path fill-rule="evenodd" clip-rule="evenodd" d="M19.4229 18.2843C19.3576 18.0573 19.4025 17.8182 19.5477 17.6195L20.4436 18.0807L21.3395 18.5419C21.1943 18.7406 20.9607 18.8825 20.69 18.9365C20.4193 18.9905 20.1337 18.9521 19.8961 18.8298C19.6585 18.7075 19.4883 18.5113 19.4229 18.2843ZM19.5477 17.6195L21.3396 18.5419L22.1609 17.4182L20.3691 16.4958L19.5477 17.6195Z"/>
</mask>
<path d="M19.5477 17.6195L20.7279 16.0048L18.9497 15.0894L17.7695 16.7041L19.5477 17.6195ZM19.4229 18.2843L17.3502 18.852L17.3502 18.852L19.4229 18.2843ZM20.4436 18.0807L21.6238 16.466L21.6238 16.466L20.4436 18.0807ZM21.3395 18.5419L23.1178 19.4573L24.298 17.8426L22.5197 16.9272L21.3395 18.5419ZM20.69 18.9365L20.3536 17.1287L20.3536 17.1287L20.69 18.9365ZM19.8961 18.8298L18.7159 20.4445L19.8961 18.8298ZM21.3396 18.5419L20.1594 20.1565L21.9376 21.0719L23.1178 19.4573L21.3396 18.5419ZM19.5477 17.6195L17.7695 16.7041L16.5893 18.3187L18.3675 19.2341L19.5477 17.6195ZM22.1609 17.4182L23.9391 18.3336L25.1193 16.7189L23.3411 15.8035L22.1609 17.4182ZM20.3691 16.4958L21.5493 14.8811L19.7711 13.9657L18.5909 15.5804L20.3691 16.4958ZM17.7695 16.7041C17.2784 17.376 17.1498 18.1555 17.3502 18.852L21.4957 17.7166C21.5655 17.9591 21.5266 18.2604 21.3259 18.5349L17.7695 16.7041ZM21.6238 16.466L20.7279 16.0048L18.3675 19.2341L19.2634 19.6953L21.6238 16.466ZM22.5197 16.9272L21.6238 16.466L19.2634 19.6953L20.1593 20.1565L22.5197 16.9272ZM21.0263 20.7444C21.857 20.5787 22.6267 20.1292 23.1178 19.4573L19.5613 17.6265C19.762 17.352 20.0644 17.1863 20.3536 17.1287L21.0263 20.7444ZM18.7159 20.4445C19.38 20.7863 20.2037 20.9085 21.0263 20.7444L20.3536 17.1287C20.6348 17.0725 20.8874 17.1179 21.0763 17.2151L18.7159 20.4445ZM17.3502 18.852C17.5488 19.5418 18.0518 20.1026 18.7159 20.4445L21.0763 17.2151C21.2651 17.3124 21.4278 17.4808 21.4957 17.7166L17.3502 18.852ZM22.5198 16.9272L20.7279 16.0048L18.3675 19.2341L20.1594 20.1565L22.5198 16.9272ZM20.3827 16.5028L19.5613 17.6265L23.1178 19.4573L23.9391 18.3336L20.3827 16.5028ZM19.1889 18.1104L20.9807 19.0328L23.3411 15.8035L21.5493 14.8811L19.1889 18.1104ZM21.326 18.5349L22.1473 17.4112L18.5909 15.5804L17.7695 16.7041L21.326 18.5349Z" fill="#FAF9F4" mask="url(#path-5-inside-1_111_214)"/>
<mask id="path-7-inside-2_111_214" fill="white">
<rect x="21" width="4.2" height="4.2" rx="1"/>
</mask>
<rect x="21" width="4.2" height="4.2" rx="1" stroke="#FAF9F4" stroke-width="4" mask="url(#path-7-inside-2_111_214)"/>
<circle cx="10.5" cy="10.5" r="6.5" stroke="#FAF9F4" stroke-width="2"/>
</svg>
